<?xml version="1.0" encoding="iso-8859-1"?>
<!-- Generator: Adobe Illustrator 19.0.0, SVG Export Plug-In . SVG Version: 6.00 Build 0)  -->
<svg version="1.1" id="Capa_1" xmlns="http://www.w3.org/2000/svg" xmlns:xlink="http://www.w3.org/1999/xlink" x="0px" y="0px"
	 viewBox="0 0 449.306 449.306" style="enable-background:new 0 0 449.306 449.306;" xml:space="preserve">
<g>
	<g>
		<polygon style="fill:#00ACEA;" points="276.898,329.118 329.143,398.082 119.641,398.082 172.408,329.118 		"/>
		<path style="fill:#00EFD1;" d="M436.767,92.971v194.351c0,23.083-18.713,41.796-41.796,41.796H54.335
			c-23.083,0-41.796-18.713-41.796-41.796V92.971c0-23.083,18.713-41.796,41.796-41.796h340.637
			C418.055,51.176,436.767,69.888,436.767,92.971z"/>
	</g>
	<path style="fill:#083863;" d="M395.494,41.771H53.812C25.078,41.771,0,64.237,0,92.971v194.351
		c0.848,29.106,24.694,52.257,53.812,52.245h97.176l-39.184,52.245c-2.591,2.882-3.013,7.111-1.045,10.449
		c1.731,3.54,5.484,5.625,9.404,5.224h208.98c3.736,0.18,7.224-1.872,8.882-5.224c2.056-3.499,1.634-7.923-1.045-10.971
		l-39.184-51.722h97.698c29.118,0.012,52.964-23.139,53.812-52.245V92.971C449.306,64.237,424.229,41.771,395.494,41.771z
		 M307.722,386.588H141.061l36.049-47.02h94.563L307.722,386.588z M423.184,287.322c0,17.312-14.035,31.347-31.347,31.347H52.245
		c-17.312,0-31.347-14.035-31.347-31.347V94.016c0-17.312,14.035-31.347,31.347-31.347h339.592
		c17.312,0,31.347,14.034,31.347,31.347V287.322z"/>
</g>
<g>
</g>
<g>
</g>
<g>
</g>
<g>
</g>
<g>
</g>
<g>
</g>
<g>
</g>
<g>
</g>
<g>
</g>
<g>
</g>
<g>
</g>
<g>
</g>
<g>
</g>
<g>
</g>
<g>
</g>
</svg>
